<svg fill="#000000" version="1.1" id="Capa_1" xmlns="http://www.w3.org/2000/svg" xmlns:xlink="http://www.w3.org/1999/xlink" viewBox="0 0 192.602 192.602" xml:space="preserve"><g id="SVGRepo_bgCarrier" stroke-width="0"></g><g id="SVGRepo_tracerCarrier" stroke-linecap="round" stroke-linejoin="round"></g><g id="SVGRepo_iconCarrier"> <g> <g> <path d="M162.902,24.3H29.7c-2.979,0-5.4,2.416-5.4,5.4v133.201c0,2.99,2.42,5.4,5.4,5.4h133.202c2.989,0,5.399-2.41,5.399-5.4 V29.7C168.302,26.708,165.892,24.3,162.902,24.3z M35.1,157.502v-30.101l8.053,8.411c0.068,0.073,0.166,0.105,0.237,0.169 c0.074,0.073,0.108,0.163,0.192,0.242c0.292,0.242,0.633,0.363,0.952,0.549c0.195,0.105,0.361,0.242,0.562,0.326 c0.63,0.243,1.29,0.391,1.949,0.391l0,0l0,0c0.725,0,1.437-0.169,2.112-0.453c0.222-0.105,0.401-0.274,0.609-0.401 c0.346-0.2,0.715-0.343,1.01-0.644c0.077-0.073,0.103-0.168,0.18-0.253c0.065-0.073,0.161-0.105,0.227-0.179l25.579-30.523 l14.953,23.852c0.05,0.085,0.114,0.122,0.164,0.201c0.031,0.042,0.031,0.105,0.068,0.132c0.045,0.063,0.119,0.084,0.163,0.137 c0.485,0.612,1.058,1.118,1.722,1.445c0.071,0.031,0.134,0.053,0.2,0.089c0.707,0.327,1.463,0.527,2.247,0.527 c0.535,0,1.047-0.1,1.566-0.253c0.145-0.042,0.306-0.132,0.459-0.2c0.29-0.11,0.562-0.2,0.841-0.363 c0.056-0.048,0.087-0.111,0.135-0.127c0.065-0.042,0.137-0.053,0.2-0.116l19.343-14.286l23.983,24.532 c0.011,0.011,0.021,0.011,0.021,0.021c0.495,0.506,1.097,0.907,1.761,1.181c0.665,0.28,1.371,0.422,2.078,0.422h10.8v15.304 L35.1,157.502L35.1,157.502z"></path> <path d="M187.202,171.002c-2.99,0-5.4,2.415-5.4,5.399v5.4h-5.399c-2.99,0-5.4,2.415-5.4,5.4c0,2.99,2.41,5.399,5.4,5.399h10.8 c2.99,0,5.399-2.409,5.399-5.399v-10.801C192.602,173.417,190.192,171.002,187.202,171.002z"></path> <path d="M61.977,181.802H39.09c-2.979,0-5.4,2.415-5.4,5.4c0,2.99,2.421,5.399,5.4,5.399h22.887c2.979,0,5.399-2.409,5.399-5.399 C67.376,184.217,64.956,181.802,61.977,181.802z"></path> <path d="M153.521,181.802h-22.887c-2.975,0-5.4,2.415-5.4,5.4c0,2.99,2.426,5.399,5.4,5.399h22.887c2.984,0,5.4-2.409,5.4-5.399 C158.921,184.217,156.495,181.802,153.521,181.802z"></path> <path d="M107.742,181.802H84.86c-2.979,0-5.4,2.415-5.4,5.4c0,2.99,2.42,5.399,5.4,5.399h22.882c2.984,0,5.399-2.409,5.399-5.399 C113.142,184.217,110.727,181.802,107.742,181.802z"></path> <path d="M16.2,181.802h-5.4v-5.4c0-2.984-2.418-5.399-5.4-5.399c-2.979,0-5.4,2.415-5.4,5.399v10.801 c0,2.99,2.421,5.399,5.4,5.399h10.8c2.982,0,5.4-2.409,5.4-5.399C21.6,184.217,19.188,181.802,16.2,181.802z"></path> <path d="M0,153.521c0,2.984,2.421,5.4,5.4,5.4c2.982,0,5.4-2.416,5.4-5.4v-22.887c0-2.984-2.418-5.4-5.4-5.4 c-2.979,0-5.4,2.416-5.4,5.4V153.521z"></path> <path d="M0,107.741c0,2.985,2.421,5.4,5.4,5.4c2.982,0,5.4-2.415,5.4-5.4V84.855c0-2.985-2.418-5.4-5.4-5.4 c-2.979,0-5.4,2.415-5.4,5.4V107.741z"></path> <path d="M5.4,67.371c2.982,0,5.4-2.415,5.4-5.4V39.087c0-2.987-2.418-5.4-5.4-5.4c-2.979,0-5.4,2.413-5.4,5.4v22.884 C0,64.956,2.421,67.371,5.4,67.371z"></path> <path d="M16.2,0H5.4C2.421,0,0,2.415,0,5.4v10.8c0,2.984,2.421,5.4,5.4,5.4c2.982,0,5.4-2.416,5.4-5.4v-5.4h5.4 c2.982,0,5.4-2.415,5.4-5.399C21.6,2.407,19.188,0,16.2,0z"></path> <path d="M107.742,10.8c2.974,0,5.399-2.415,5.399-5.399c0-2.985-2.426-5.4-5.399-5.4H84.855c-2.979,0-5.4,2.415-5.4,5.4 c0,2.984,2.42,5.399,5.4,5.399H107.742z"></path> <path d="M153.521,10.8c2.984,0,5.4-2.415,5.4-5.399c0-2.985-2.416-5.4-5.4-5.4h-22.887c-2.975,0-5.4,2.415-5.4,5.4 c0,2.984,2.426,5.399,5.4,5.399H153.521z"></path> <path d="M61.971,10.8c2.979,0,5.4-2.415,5.4-5.399c0-2.985-2.421-5.4-5.4-5.4H39.084c-2.979,0-5.399,2.415-5.399,5.4 c0,2.984,2.42,5.399,5.399,5.399H61.971z"></path> <path d="M187.202,0h-10.8c-2.99,0-5.4,2.415-5.4,5.4c0,2.984,2.41,5.399,5.4,5.399h5.399v5.4c0,2.984,2.41,5.4,5.4,5.4 s5.399-2.416,5.399-5.4V5.4C192.602,2.407,190.192,0,187.202,0z"></path> <path d="M187.202,125.224c-2.99,0-5.4,2.415-5.4,5.399v22.887c0,2.985,2.41,5.4,5.4,5.4s5.399-2.415,5.399-5.4v-22.887 C192.602,127.649,190.192,125.224,187.202,125.224z"></path> <path d="M187.202,33.687c-2.99,0-5.4,2.413-5.4,5.4v22.884c0,2.985,2.41,5.4,5.4,5.4s5.399-2.415,5.399-5.4V39.087 C192.602,36.1,190.192,33.687,187.202,33.687z"></path> <path d="M187.202,79.455c-2.99,0-5.4,2.415-5.4,5.4v22.886c0,2.985,2.41,5.4,5.4,5.4s5.399-2.415,5.399-5.4V84.855 C192.602,81.87,190.192,79.455,187.202,79.455z"></path> </g> </g> </g></svg>